<?xml version="1.0" ?><!-- Uploaded to: SVG Repo, www.svgrepo.com, Generator: SVG Repo Mixer Tools -->
<svg fill="#000000" width="800px" height="800px" viewBox="0 0 64 64" data-name="Layer 1" id="Layer_1" xmlns="http://www.w3.org/2000/svg"><rect height="6" width="2" x="54" y="38"/><rect height="6" width="2" x="54" y="46"/><path d="M52,38H12v6H52ZM24,42H18V40h6Zm4,0H26V40h2Zm4,0H30V40h2Z"/><path d="M52,46H12v6H52ZM24,50H18V48h6Zm4,0H26V48h2Zm4,0H30V48h2Z"/><rect height="6" width="2" x="54" y="54"/><circle cx="32" cy="28" r="1"/><path d="M52,54H12v6H52ZM24,58H18V56h6Zm4,0H26V56h2Zm4,0H30V56h2Z"/><circle cx="32" cy="10" r="2"/><rect height="6" width="2" x="8" y="38"/><rect height="6" width="2" x="8" y="46"/><rect height="6" width="2" x="8" y="54"/><path d="M37.641,14.442a6.718,6.718,0,1,0-11.282,0L32,23.159ZM28,10a4,4,0,1,1,4,4A4,4,0,0,1,28,10Z"/><path d="M15,34H13V28a1,1,0,0,1,1-1H30v2H15Z"/><path d="M51,34H49V29H34V27H50a1,1,0,0,1,1,1Z"/><rect height="2" width="2" x="16" y="6"/><rect height="2" width="2" x="18" y="8"/><rect height="2" width="2" x="16" y="10"/><rect height="2" width="2" x="14" y="8"/><rect height="2" width="2" x="7" y="2"/><rect height="2" width="2" x="18" y="21"/><rect height="2" width="2" x="46" y="16"/><rect height="2" width="2" x="48" y="18"/><rect height="2" width="2" x="46" y="20"/><rect height="2" width="2" x="44" y="18"/><rect height="2" width="2" x="55" y="9"/><rect height="2" width="2" x="44" y="2"/></svg>